HIERARCHY
ROOT Hips
{
	OFFSET 0.000000 89.005402 0.000000
	CHANNELS 6 Xposition Yposition Zposition Xrotation Yrotation Zrotation
	JOINT Spine
	{
		OFFSET 0.116900 10.681000 0.373400
		CHANNELS 3 Xrotation Yrotation Zrotation
		JOINT Spine1
		{
			OFFSET 0.000000 13.840401 0.053500
			CHANNELS 3 Xrotation Yrotation Zrotation
			JOINT Spine2
			{
				OFFSET 0.000000 14.712700 -0.366200
				CHANNELS 3 Xrotation Yrotation Zrotation
				JOINT Neck
				{
					OFFSET 0.000000 35.415497 -3.314200
					CHANNELS 3 Xrotation Yrotation Zrotation
					JOINT Head
					{
						OFFSET 0.000000 16.899200 1.218300
						CHANNELS 3 Xrotation Yrotation Zrotation
						JOINT HeadTop_End
						{
							OFFSET 0.000000 22.206207 2.192500
							CHANNELS 3 Xrotation Yrotation Zrotation
							End Site
							{
								OFFSET 0.000000 22.314178 0.000000
							}
						}
					}
				}
				JOINT LeftShoulder
				{
					OFFSET 12.896400 26.716293 -4.548400
					CHANNELS 3 Xrotation Yrotation Zrotation
					JOINT LeftArm
					{
						OFFSET 19.027000 -4.857010 -1.718400
						CHANNELS 3 Xrotation Yrotation Zrotation
						JOINT LeftForeArm
						{
							OFFSET 24.179897 0.000000 0.000000
							CHANNELS 3 Xrotation Yrotation Zrotation
							JOINT LeftHand
							{
								OFFSET 27.156403 0.000000 0.000000
								CHANNELS 3 Xrotation Yrotation Zrotation
								JOINT LeftHandIndex1
								{
									OFFSET 16.441200 0.000000 0.000000
									CHANNELS 3 Xrotation Yrotation Zrotation
									JOINT LeftHandIndex2
									{
										OFFSET 4.821899 0.000000 0.000000
										CHANNELS 3 Xrotation Yrotation Zrotation
										JOINT LeftHandIndex3
										{
											OFFSET 6.386497 0.000000 0.000000
											CHANNELS 3 Xrotation Yrotation Zrotation
											JOINT LeftHandIndex4
											{
												OFFSET 5.188988 0.000000 0.000000
												CHANNELS 3 Xrotation Yrotation Zrotation
												End Site
												{
													OFFSET -0.178703 5.185913 0.000177
												}
											}
										}
									}
								}
								JOINT LeftHandThumb1
								{
									OFFSET 6.534897 -5.032593 5.900300
									CHANNELS 3 Xrotation Yrotation Zrotation
									JOINT LeftHandThumb2
									{
										OFFSET 3.818176 -2.204422 2.204423
										CHANNELS 3 Xrotation Yrotation Zrotation
										JOINT LeftHandThumb3
										{
											OFFSET 3.252098 -1.877594 1.877601
											CHANNELS 3 Xrotation Yrotation Zrotation
											JOINT LeftHandThumb4
											{
												OFFSET 5.251778 -3.032120 3.032117
												CHANNELS 3 Xrotation Yrotation Zrotation
												End Site
												{
													OFFSET 0.000023 6.780014 0.000000
												}
											}
										}
									}
								}
							}
						}
					}
				}
				JOINT RightShoulder
				{
					OFFSET -12.896300 26.716293 -4.548400
					CHANNELS 3 Xrotation Yrotation Zrotation
					JOINT RightArm
					{
						OFFSET -19.027000 -4.857010 -1.718400
						CHANNELS 3 Xrotation Yrotation Zrotation
						JOINT RightForeArm
						{
							OFFSET -24.179897 0.000000 0.000000
							CHANNELS 3 Xrotation Yrotation Zrotation
							JOINT RightHand
							{
								OFFSET -27.156403 0.000000 0.000000
								CHANNELS 3 Xrotation Yrotation Zrotation
								JOINT RightHandThumb1
								{
									OFFSET -6.591202 -4.852203 5.988100
									CHANNELS 3 Xrotation Yrotation Zrotation
									JOINT RightHandThumb2
									{
										OFFSET -3.818176 -2.204422 2.204423
										CHANNELS 3 Xrotation Yrotation Zrotation
										JOINT RightHandThumb3
										{
											OFFSET -3.252098 -1.877594 1.877601
											CHANNELS 3 Xrotation Yrotation Zrotation
											JOINT RightHandThumb4
											{
												OFFSET -5.251778 -3.032120 3.032117
												CHANNELS 3 Xrotation Yrotation Zrotation
												End Site
												{
													OFFSET -0.000023 6.780014 0.000000
												}
											}
										}
									}
								}
								JOINT RightHandIndex1
								{
									OFFSET -16.029404 0.000000 0.000000
									CHANNELS 3 Xrotation Yrotation Zrotation
									JOINT RightHandIndex2
									{
										OFFSET -5.213303 0.000000 0.000000
										CHANNELS 3 Xrotation Yrotation Zrotation
										JOINT RightHandIndex3
										{
											OFFSET -6.386528 0.000000 0.000000
											CHANNELS 3 Xrotation Yrotation Zrotation
											JOINT RightHandIndex4
											{
												OFFSET -5.189026 0.000000 0.000000
												CHANNELS 3 Xrotation Yrotation Zrotation
												End Site
												{
													OFFSET 0.236702 5.183624 0.001972
												}
											}
										}
									}
								}
							}
						}
					}
				}
			}
		}
	}
	JOINT LeftUpLeg
	{
		OFFSET 14.073000 -7.904099 -1.463000
		CHANNELS 3 Xrotation Yrotation Zrotation
		JOINT LeftLeg
		{
			OFFSET -0.109806 -34.073280 4.093200
			CHANNELS 3 Xrotation Yrotation Zrotation
			JOINT LeftFoot
			{
				OFFSET 0.109806 -29.899420 -6.319000
				CHANNELS 3 Xrotation Yrotation Zrotation
				JOINT LeftToeBase
				{
					OFFSET 1.551100 -14.988700 20.535801
					CHANNELS 3 Xrotation Yrotation Zrotation
					JOINT LeftToe_End
					{
						OFFSET 0.221200 0.570800 13.248301
						CHANNELS 3 Xrotation Yrotation Zrotation
						End Site
						{
							OFFSET 0.000000 13.262435 0.000000
						}
					}
				}
			}
		}
	}
	JOINT RightUpLeg
	{
		OFFSET -13.839300 -7.904099 -1.463000
		CHANNELS 3 Xrotation Yrotation Zrotation
		JOINT RightLeg
		{
			OFFSET 0.109694 -34.073219 4.093300
			CHANNELS 3 Xrotation Yrotation Zrotation
			JOINT RightFoot
			{
				OFFSET -0.109694 -29.899384 -6.319200
				CHANNELS 3 Xrotation Yrotation Zrotation
				JOINT RightToeBase
				{
					OFFSET -1.551100 -14.988700 20.535801
					CHANNELS 3 Xrotation Yrotation Zrotation
					JOINT RightToe_End
					{
						OFFSET -0.221200 0.570900 13.248299
						CHANNELS 3 Xrotation Yrotation Zrotation
						End Site
						{
							OFFSET 0.000000 13.262440 0.000000
						}
					}
				}
			}
		}
	}
}
MOTION
Frames: 5
Frame Time: 0.033333
7.517988 74.381371 114.917686 6.983185 3.272416 -2.273213 6.208957 -3.694587 2.495815 12.505935 -7.094394 5.046419 12.514455 -7.101057 5.025465 -7.574209 2.326312 1.463668 -22.152626 15.030752 -4.587261 -0.000000 -0.000000 0.000000 0.552156 -2.531396 -1.213618 -40.083054 -25.860157 -63.235858 0.000012 -47.758735 0.000007 -6.144094 -1.531983 -21.259293 0.767027 3.163182 -27.254243 0.460668 2.480617 -21.037642 0.116070 1.261510 -10.513838 0.000001 -0.000002 -0.000006 12.048850 -5.643460 -9.741661 6.522364 19.473807 3.490590 0.822216 7.282109 4.154327 0.000001 -0.000001 0.000002 0.711052 -2.374371 11.469269 -16.285714 4.012062 50.198195 -0.000005 25.432119 0.000004 -40.821387 -10.839733 20.379980 -1.849252 -3.581796 -6.586151 6.538524 -14.210590 -1.616562 -0.300816 -2.620551 -2.997758 -0.000001 0.000001 0.000001 0.638407 -2.915212 24.699772 0.599849 -2.829987 23.930430 0.151491 -1.446399 11.957800 0.000001 -0.000001 0.000002 13.691341 14.245253 9.566389 29.876713 -6.874004 4.345093 -41.056103 3.736146 -10.303798 -21.334089 -0.000005 -0.000001 0.000001 0.000000 -0.000000 -56.044687 0.533115 -9.179057 36.339871 -8.098109 0.114682 8.996911 -4.808246 5.766558 -0.000730 0.000000 0.000002 -0.000000 0.000002 0.000000 
7.070154 72.038063 118.515434 7.331942 3.941537 -1.651469 6.284670 -3.805823 2.387906 12.642158 -7.016652 5.046965 12.651324 -7.019581 5.020446 -8.547750 2.044674 1.606560 -22.592039 13.827255 -4.965613 0.000000 0.000000 -0.000000 0.565242 -2.138483 -2.161369 -41.343138 -25.442318 -64.566687 -0.000024 -46.360476 -0.000024 -4.219265 -2.396744 -23.456205 0.761076 3.151596 -27.145928 0.460762 2.480843 -21.039587 0.116083 1.261621 -10.514810 -0.000001 0.000004 -0.000001 12.048852 -5.643463 -9.741661 6.522365 19.473812 3.490590 0.822216 7.282111 4.154328 -0.000000 -0.000001 -0.000001 0.766153 -2.247749 11.867056 -17.427571 3.767207 50.580491 -0.000001 23.865559 0.000015 -42.782393 -7.700015 19.926022 -1.849249 -3.581795 -6.586152 6.538517 -14.210590 -1.616560 -0.300816 -2.620551 -2.997760 -0.000002 0.000001 0.000000 0.425287 -2.398735 20.104740 0.599853 -2.829990 23.930427 0.151486 -1.446400 11.957804 -0.000000 -0.000002 -0.000002 15.681635 15.330979 10.028523 31.959982 -8.376905 5.353442 -43.184055 3.713179 -11.236631 -22.365762 -0.000001 0.000001 0.000001 0.000001 0.000000 -59.394724 1.066583 -10.336677 41.555861 -6.990995 0.471190 12.521029 -3.353832 6.421245 -0.000200 -0.000003 0.000002 0.000000 -0.000000 -0.000000 
6.560126 70.845474 121.805176 7.966580 4.366663 -1.310138 6.382486 -3.733137 2.343477 12.856678 -6.795579 4.928650 12.869886 -6.791655 4.898829 -9.326824 1.765521 1.632420 -22.970633 12.472350 -5.272440 -0.000000 0.000000 0.000000 0.598938 -2.269783 -2.670099 -42.836792 -24.225361 -66.311554 -0.000024 -44.148949 -0.000029 -3.265709 -3.760014 -22.404854 0.753553 3.136933 -27.008909 0.460846 2.481065 -21.041595 0.116124 1.261732 -10.515815 -0.000002 0.000001 -0.000000 12.048852 -5.643464 -9.741659 6.522364 19.473814 3.490596 0.822216 7.282107 4.154328 -0.000001 -0.000000 0.000000 0.846710 -1.005742 11.758950 -19.277738 4.169036 50.595080 -0.000002 21.032058 0.000020 -41.139008 -5.383202 20.056386 -1.849256 -3.581795 -6.586151 6.538523 -14.210590 -1.616563 -0.300819 -2.620551 -2.997759 -0.000002 -0.000001 -0.000000 0.175476 -1.555291 12.873337 0.599851 -2.829989 23.930432 0.151493 -1.446402 11.957805 -0.000002 -0.000001 -0.000000 14.428259 15.848844 11.378095 37.525729 -8.754419 6.381460 -42.159462 3.688697 -12.167899 -26.640784 0.000007 -0.000002 0.000001 0.000000 0.000000 -62.106671 1.259953 -11.158347 49.874820 -5.939872 1.214453 6.240006 -3.272251 6.436172 -0.000067 -0.000001 -0.000001 0.000000 0.000000 -0.000000 
6.056636 70.554482 124.843094 8.770674 4.788226 -1.095102 6.500673 -3.557330 2.337383 13.110344 -6.441925 4.658788 13.128614 -6.430394 4.628079 -9.845789 1.492334 1.535558 -23.249262 10.980525 -5.505680 0.000001 0.000000 -0.000000 0.653263 -2.990686 -2.631264 -43.639906 -22.416876 -67.790481 0.000000 -40.529560 0.000003 -1.962758 -5.842949 -20.060266 0.744926 3.119988 -26.851005 0.460931 2.481294 -21.043640 0.116143 1.261858 -10.516834 0.000000 0.000003 0.000002 12.048850 -5.643461 -9.741661 6.522364 19.473814 3.490588 0.822216 7.282108 4.154325 -0.000000 -0.000000 -0.000001 0.943654 0.811279 11.402858 -21.504402 5.175635 50.267525 -0.000000 18.207608 -0.000023 -36.327754 -6.151472 20.329971 -1.849252 -3.581795 -6.586151 6.538522 -14.210590 -1.616562 -0.300814 -2.620550 -2.997759 0.000003 0.000001 0.000001 0.047516 -0.813245 6.688790 0.599852 -2.829989 23.930423 0.151489 -1.446400 11.957804 0.000002 -0.000001 -0.000001 9.138470 14.837993 13.593532 47.813240 -8.363614 7.011741 -37.001945 4.436315 -12.804271 -28.001600 0.085698 -2.595828 -0.000000 -0.000001 -0.000000 -62.638907 1.206704 -11.746493 55.313119 -5.367526 1.822017 0.552476 -3.603517 6.413907 -0.000045 0.000001 0.000001 0.000000 -0.000001 -0.000000 
5.671278 70.949394 127.695518 9.457848 5.226292 -0.907849 6.608520 -3.241317 2.400197 13.269098 -6.026572 4.277301 13.289750 -6.012645 4.247566 -10.067640 1.220560 1.325390 -23.398655 9.342857 -5.655323 -0.000001 -0.000000 0.000000 0.717841 -3.802333 -2.598520 -43.327633 -21.219157 -68.119662 0.000006 -37.212554 0.000006 -0.817347 -7.703248 -19.180259 0.735656 3.101629 -26.680071 0.461003 2.481523 -21.045724 0.116157 1.261973 -10.517860 0.000002 0.000001 -0.000002 12.048854 -5.643462 -9.741656 6.522363 19.473810 3.490591 0.822215 7.282108 4.154328 -0.000001 0.000001 -0.000001 1.020755 2.310532 11.076101 -23.039896 6.265855 49.759369 -0.000001 17.133297 0.000007 -30.858965 -9.462307 21.145591 -1.849252 -3.581795 -6.586152 6.538521 -14.210589 -1.616563 -0.300817 -2.620550 -2.997759 0.000000 0.000000 0.000001 0.016958 -0.486428 3.994764 0.599851 -2.829988 23.930430 0.151492 -1.446399 11.957809 0.000001 -0.000002 -0.000000 1.835248 12.269004 15.015934 58.295460 -7.260574 7.073176 -27.617866 4.496438 -12.796738 -38.200264 2.610264 -6.352924 -0.000000 -0.000002 -0.000000 -61.482788 1.157864 -11.910449 58.073697 -5.446774 1.911581 -3.956868 -3.943293 6.799739 -0.000060 0.000002 0.000000 -0.000000 -0.000000 -0.000000 
